<svg xmlns="http://www.w3.org/2000/svg" xmlns:xlink="http://www.w3.org/1999/xlink" width="368.875" height="265.819" viewBox="0 0 368.875 265.819">
    <defs>
        <linearGradient id="prefix__linear-gradient" x1="11.753" x2="11.753" y1="30.082" y2="31.082" gradientUnits="objectBoundingBox">
            <stop offset="0" stop-color="gray" stop-opacity=".251"/>
            <stop offset=".54" stop-color="gray" stop-opacity=".122"/>
            <stop offset="1" stop-color="gray" stop-opacity=".102"/>
        </linearGradient>
        <linearGradient id="prefix__linear-gradient-2" x1=".577" x2=".577" y1="-.073" y2=".927" xlink:href="#prefix__linear-gradient"/>
        <style>
            .prefix__cls-14,.prefix__cls-9{opacity:.1}.prefix__cls-4,.prefix__cls-9{isolation:isolate}.prefix__cls-2{fill:none;stroke:#535461;stroke-miterlimit:10;stroke-width:2px}.prefix__cls-3{fill:#53c392}.prefix__cls-4{opacity:.25}.prefix__cls-7{fill:#e8f5ff}.prefix__cls-8{fill:#ffc1c7}.prefix__cls-10{fill:#575a89}.prefix__cls-13{fill:#353146}.prefix__cls-15{fill:#ffccd0}.prefix__cls-16{fill:#ff748e}
        </style>
    </defs>
    <g id="prefix__Group_325" data-name="Group 325" transform="translate(.001 -.015)">
        <path id="prefix__Path_3537" d="M214.323 58.881c-23.648-.822-46.189-8.457-67.68-16.808S103.85 24.467 80.755 20.042c-14.848-2.849-31.83-3.25-43.791 4.711C25.451 32.411 21.732 45.632 19.731 57.9c-1.5 9.231-2.377 18.944 1.735 27.588 2.863 6 7.944 11.041 11.459 16.788 12.226 19.994 3.583 44.65-9.669 64.189-6.215 9.17-13.425 17.895-18.221 27.645s-7.017 20.921-2.819 30.865c4.16 9.849 14.071 17.26 24.81 22.466 21.811 10.566 47.51 13.588 72.571 15.32 55.474 3.794 111.247 2.15 166.868.506 20.585-.611 41.261-1.226 61.509-4.415 11.245-1.769 22.857-4.575 31.021-11.347 10.362-8.6 12.933-23.156 5.988-33.939-11.649-18.082-43.856-22.575-52-41.981-4.483-10.685.123-22.585 6.637-32.485 13.969-21.25 37.389-39.9 38.622-64.189.849-16.686-10.409-33.392-27.819-41.288-18.245-8.283-43.547-7.237-57.006 6.453C259.558 54.177 235.2 59.6 214.323 58.881z" data-name="Path 3537" transform="translate(0 -11.993)" style="isolation:isolate;opacity:.1;fill:#004326"/>
        <path id="prefix__Path_3538" d="M160.78 611.865s-18.679-14.122-22.208-32.084a35.5 35.5 0 0 0-10.939-19.6 59.765 59.765 0 0 0-8.752-6.521" class="prefix__cls-2" data-name="Path 3538" transform="translate(-78.506 -365.614)"/>
        <path id="prefix__Path_3539" d="M94.658 516.415c1.637 2.214 2.377 11.6 2.377 11.6s-8.752-3.447-10.393-5.658a4.988 4.988 0 1 1 8.015-5.94z" class="prefix__cls-3" data-name="Path 3539" transform="translate(-56.57 -339.685)"/>
        <path id="prefix__Path_3540" d="M139 533.053c.17 2.748-4.3 11.028-4.3 11.028s-5.478-7.655-5.651-10.4a4.986 4.986 0 0 1 9.951-.625z" class="prefix__cls-3" data-name="Path 3540" transform="translate(-85.216 -348.96)"/>
        <path id="prefix__Path_3541" d="M184.557 590.442c-1.236 2.459-9.282 7.349-9.282 7.349s-.859-9.374.377-11.833a4.986 4.986 0 0 1 8.9 4.483z" class="prefix__cls-3" data-name="Path 3541" transform="translate(-115.556 -385.183)"/>
        <path id="prefix__Path_3542" d="M207.6 646.565c-.8 2.632-7.906 8.81-7.906 8.81s-2.435-9.092-1.63-11.727a4.986 4.986 0 0 1 9.537 2.917z" class="prefix__cls-3" data-name="Path 3542" transform="translate(-130.689 -422.709)"/>
        <path id="prefix__Path_3543" d="M113.455 574.786c2.717.367 11.306-3.512 11.306-3.512s-7.248-6-9.978-6.371a4.986 4.986 0 0 0-1.328 9.883z" class="prefix__cls-3" data-name="Path 3543" transform="translate(-72.069 -373.008)"/>
        <path id="prefix__Path_3544" d="M138.493 638.614c2.717-.465 9.737-6.731 9.737-6.731s-8.715-3.559-11.428-3.094a4.986 4.986 0 1 0 1.613 9.84l.086-.015z" class="prefix__cls-3" data-name="Path 3544" transform="translate(-87.581 -415.199)"/>
        <path id="prefix__Path_3545" d="M175.969 696.6c2.754 0 10.736-4.989 10.736-4.989s-7.985-4.982-10.739-4.982a4.986 4.986 0 0 0 0 9.971z" class="prefix__cls-3" data-name="Path 3545" transform="translate(-112.915 -453.424)"/>
        <path id="prefix__Path_3546" d="M776.55 269.609s11.513-20.394 28.868-26.27a35.5 35.5 0 0 0 17.973-13.446 59.565 59.565 0 0 0 5.295-9.554" class="prefix__cls-2" data-name="Path 3546" transform="translate(-512.815 -145.497)"/>
        <path id="prefix__Path_3547" d="M940.407 192.808c-1.977 1.915-11.177 3.9-11.177 3.9s2.259-9.136 4.235-11.055a4.986 4.986 0 0 1 6.942 7.156z" class="prefix__cls-3" data-name="Path 3547" transform="translate(-613.641 -121.702)"/>
        <path id="prefix__Path_3548" d="M924.453 238.726c-2.717.537-11.5-2.8-11.5-2.8s6.86-6.453 9.56-6.979a4.986 4.986 0 1 1 2.16 9.735c-.072.016-.145.03-.218.043z" class="prefix__cls-3" data-name="Path 3548" transform="translate(-602.89 -151.103)"/>
        <path id="prefix__Path_3549" d="M874.5 291.9c-2.6-.9-8.514-8.222-8.514-8.222s9.17-2.1 11.778-1.2a4.986 4.986 0 0 1-3.139 9.464z" class="prefix__cls-3" data-name="Path 3549" transform="translate(-571.879 -186.381)"/>
        <path id="prefix__Path_3550" d="M820.828 321.778c-2.717-.448-9.768-6.68-9.768-6.68s8.691-3.62 11.4-3.172a4.991 4.991 0 1 1-1.62 9.849z" class="prefix__cls-3" data-name="Path 3550" transform="translate(-535.604 -205.953)"/>
        <path id="prefix__Path_3551" d="M890.36 218.778c0 2.754 4.992 10.746 4.992 10.746s4.989-7.981 4.989-10.732a4.986 4.986 0 1 0-9.968-.26v.26z" class="prefix__cls-3" data-name="Path 3551" transform="translate(-587.972 -141.097)"/>
        <path id="prefix__Path_3552" d="M830.6 252.7c.822 2.629 7.968 8.759 7.968 8.759s2.377-9.109 1.549-11.737a4.986 4.986 0 0 0-9.51 2.979z" class="prefix__cls-3" data-name="Path 3552" transform="translate(-548.392 -162.701)"/>
        <path id="prefix__Path_3553" d="M777.939 296.914c.367 2.717 6.371 9.975 6.371 9.975s3.875-8.576 3.508-11.3a4.986 4.986 0 0 0-9.911 1.092q.014.119.032.233z" class="prefix__cls-3" data-name="Path 3553" transform="translate(-513.692 -192.256)"/>
        <path id="prefix__Path_3554" d="M940.407 192.808c-1.977 1.915-11.177 3.9-11.177 3.9s2.259-9.136 4.235-11.055a4.986 4.986 0 0 1 6.942 7.156z" class="prefix__cls-4" data-name="Path 3554" transform="translate(-613.641 -121.702)"/>
        <path id="prefix__Path_3555" d="M924.453 238.726c-2.717.537-11.5-2.8-11.5-2.8s6.86-6.453 9.56-6.979a4.986 4.986 0 1 1 2.16 9.735c-.072.016-.145.03-.218.043z" class="prefix__cls-4" data-name="Path 3555" transform="translate(-602.89 -151.103)"/>
        <path id="prefix__Path_3556" d="M874.5 291.9c-2.6-.9-8.514-8.222-8.514-8.222s9.17-2.1 11.778-1.2a4.986 4.986 0 0 1-3.139 9.464z" class="prefix__cls-4" data-name="Path 3556" transform="translate(-571.879 -186.381)"/>
        <path id="prefix__Path_3557" d="M820.828 321.778c-2.717-.448-9.768-6.68-9.768-6.68s8.691-3.62 11.4-3.172a4.991 4.991 0 1 1-1.62 9.849z" class="prefix__cls-4" data-name="Path 3557" transform="translate(-535.604 -205.953)"/>
        <path id="prefix__Path_3558" d="M890.36 218.778c0 2.754 4.992 10.746 4.992 10.746s4.989-7.981 4.989-10.732a4.986 4.986 0 1 0-9.968-.26v.26z" class="prefix__cls-4" data-name="Path 3558" transform="translate(-587.972 -141.097)"/>
        <path id="prefix__Path_3559" d="M830.6 252.7c.822 2.629 7.968 8.759 7.968 8.759s2.377-9.109 1.549-11.737a4.986 4.986 0 0 0-9.51 2.979z" class="prefix__cls-4" data-name="Path 3559" transform="translate(-548.392 -162.701)"/>
        <path id="prefix__Path_3560" d="M777.939 296.914c.367 2.717 6.371 9.975 6.371 9.975s3.875-8.576 3.508-11.3a4.986 4.986 0 0 0-9.911 1.092q.014.119.032.233z" class="prefix__cls-4" data-name="Path 3560" transform="translate(-513.692 -192.256)"/>
        <path id="prefix__Path_3561" d="M778.5 235.592s2.262-23.312 15.731-35.708a35.515 35.515 0 0 0 10.983-19.576 59.54 59.54 0 0 0 .982-10.868" class="prefix__cls-2" data-name="Path 3561" transform="translate(-514.103 -111.884)"/>
        <path id="prefix__Path_3562" d="M866.267 132.968c-1.019 2.554-8.64 8.1-8.64 8.1s-1.637-9.268-.608-11.822a4.987 4.987 0 1 1 9.248 3.736z" class="prefix__cls-3" data-name="Path 3562" transform="translate(-565.731 -83.278)"/>
        <path id="prefix__Path_3563" d="M867.969 179.211c-2.252 1.583-11.649 2.1-11.649 2.1s3.661-8.674 5.913-10.257a4.986 4.986 0 0 1 5.975 7.983q-.117.087-.238.168z" class="prefix__cls-3" data-name="Path 3563" transform="translate(-565.493 -112.295)"/>
        <path id="prefix__Path_3564" d="M839.339 248.41c-2.744.231-11.119-4.076-11.119-4.076s7.54-5.638 10.284-5.869a4.986 4.986 0 0 1 .836 9.937z" class="prefix__cls-3" data-name="Path 3564" transform="translate(-546.937 -157.455)"/>
        <path id="prefix__Path_3565" d="M803.806 297.189c-2.666.679-11.646-2.129-11.646-2.129s6.477-6.83 9.143-7.523a4.986 4.986 0 1 1 2.5 9.652z" class="prefix__cls-3" data-name="Path 3565" transform="translate(-523.123 -189.767)"/>
        <path id="prefix__Path_3566" d="M826.409 179.732c1.114 2.517 8.9 7.811 8.9 7.811s1.325-9.319.211-11.836a4.986 4.986 0 0 0-9.115 4.035z" class="prefix__cls-3" data-name="Path 3566" transform="translate(-545.489 -114.134)"/>
        <path id="prefix__Path_3567" d="M785.01 234.148c1.817 2.068 10.831 4.779 10.831 4.779s-1.521-9.289-3.339-11.357a4.986 4.986 0 0 0-7.585 6.474z" class="prefix__cls-3" data-name="Path 3567" transform="translate(-517.552 -149.116)"/>
        <path id="prefix__Path_3568" d="M755.364 296.737c1.44 2.343 9.866 6.538 9.866 6.538s.071-9.411-1.359-11.758a4.986 4.986 0 0 0-8.491 5.22z" class="prefix__cls-3" data-name="Path 3568" transform="translate(-498.398 -191.016)"/>
        <path id="prefix__Path_3569" d="M727.5 83.272c.564-2.068 1.243-4.147 1.719-6.242-.571 2.095-1.254 4.181-1.719 6.242z" data-name="Path 3569" transform="translate(-480.424 -50.859)"/>
        <path id="prefix__Path_3570" d="M371.871 52.336c-.048-.082-.082-.163-.119-.238 0-.034-.034-.061-.048-.1a2.123 2.123 0 0 1-.228.092c-.149.058-.3.112-.459.156s-.221.068-.34.1a1.976 1.976 0 0 1-.3.078l.027.061c.126-.027.248-.051.374-.085l.034.421c.143 0 .275-.02.4-.02a1.651 1.651 0 0 1 .183 0h.679c-.068-.153-.142-.312-.203-.465zm68.944 109.743c-1.6-2.15-4.782-25.224-4.782-25.224s-6.266-16.407-4.558-22.955-4.666-23.3-4.666-23.3-4.211-1.831-4.439-4.548c0 0-17.2-5.434-18-9.509-.652-3.342-11.316-5.74-15.147-6.5-1.168-4.714-2.343-9.112-3.209-11.513-.234-.747-.455-1.392-.659-1.9-1.464-3.736-5.988-4.075-9.268-3.777a5.054 5.054 0 0 0-.778-1.776.974.974 0 0 0-.309-.477 1.792 1.792 0 0 0-.224-.163 1.076 1.076 0 0 0-.231-.292 1.626 1.626 0 0 0-.306-.217 2.016 2.016 0 0 0-.245-.112 3.249 3.249 0 0 0-.608-.166 5.031 5.031 0 0 0-.734-.1 4.466 4.466 0 0 0 1.566-1.145 3.258 3.258 0 0 0 .642-1.182 3.472 3.472 0 0 0 .14-1.106 2.875 2.875 0 0 1-.306.438c.143-1.5-.652-3.033-1.107-4.531a13.41 13.41 0 0 1-.3-5.994c.455-3.009 1.583-6.052 2.347-9.116a.212.212 0 0 0 0-.051 23.67 23.67 0 0 0 .74-4.649 20.518 20.518 0 0 0-1.98-9.214c-1.158-2.557-2.866-5.074-5.482-6.113-1.943-.785-4.12-.659-6.212-.788-4.694-.292-9.17-1.943-13.633-3.444s-9.054-2.866-13.751-2.6-9.53 2.527-11.673 6.684a41.85 41.85 0 0 1-1.882 3.96c-1.522 2.3-4.245 3.451-6.517 5.037a12.888 12.888 0 0 0-5.094 6.524 8.7 8.7 0 0 0-.183 4.466 8.011 8.011 0 0 0 .285.985 6.983 6.983 0 0 0 1.477 2.415 7.206 7.206 0 0 0 1.678 1.3 9.87 9.87 0 0 0 2.479.965c-.031.1-.061.211-.1.316-.054.173-.1.34-.153.526-.112.418-.217.842-.306 1.27a.411.411 0 0 0 0 .092 27.745 27.745 0 0 0-.625 5.879 27.117 27.117 0 0 0 .143 2.8 28.308 28.308 0 0 0 26.793 25.36c.482.024.968.037 1.46.037h.679c.221.292.438.591.645.883s.4.591.577.883l-.492-.509-.492-.452a3.974 3.974 0 0 1-.445.513 8.283 8.283 0 0 0-.982-.278 12.586 12.586 0 0 0-6.382.425 27.91 27.91 0 0 0-9.489 5.417L308.619 86.41l-9.795 5.957-3.529 8.626s-2.652 10.25-5.6 21.994c-.115.034-.228.068-.34.109a6.376 6.376 0 0 0-.72-.041A6.619 6.619 0 0 0 282 129.41c-5.869 7.132-6.2 14.264-4.823 17.538a4.674 4.674 0 0 0 .469.873 82.436 82.436 0 0 1 4.3 8.249c-.044.3-.071.543-.085.73v.183s1.019 15.388-2.377 19.8c-.744.961-.632 2.225 0 3.624 2.275 5.033 11.272 11.754 11.272 11.754s10.79-.058 16.8-.713c-.017.6-.031 1.206-.044 1.793-.136 5.937-.136 10.912-.136 10.912l-.224 6.225s-2.038 13.12-3.057 16.737c-.642 2.269.1 23.274.744 38.717h106.316c1.25-9.136-.513-36.893-.513-36.893a72.928 72.928 0 0 1-1.735-13.432.051.051 0 0 1 0-.044c0-.547 0-1.08.02-1.6l.771-.027 1.386-.048h.126s.034-.129.112-.34a6.493 6.493 0 0 1 .744-1.484 3.682 3.682 0 0 1 2.9-1.786 7.865 7.865 0 0 0 3.3-1.569.061.061 0 0 0 .027 0c3.61-2.442 8.382-6.949 9.54-7.689 1.593-1.019 9.221-7.811 9.221-7.811s1.138-1.44 2.35-3.175l.044-.061c1.508-2.174 3.111-4.772 2.717-5.59-.679-1.467.455-4.975.455-4.975 3.543-6.487-.209-15.079-1.806-17.229zM375.141 57.617a1.363 1.363 0 0 1 .061.312c-.085-.112-.17-.231-.255-.34l-.082-.109-.058-.082.129-.177v.024a1.179 1.179 0 0 1 .205.372zM374 54.608c-.37.075-.662.143-.852.194-.241-.428-.472-.856-.679-1.291A9.861 9.861 0 0 1 374 54.608zm-.638.537a.067.067 0 0 1 0-.02l.027.02c.139.092.275.18.4.272.112.082.214.16.316.241a3.254 3.254 0 0 1-.217.34c-.119-.187-.231-.367-.34-.554a1.224 1.224 0 0 1-.186-.3zm-2.038-4.191a10.029 10.029 0 0 1 1.973 0 1.494 1.494 0 0 1 .255.031 2.823 2.823 0 0 1 .54.139 3.947 3.947 0 0 1 .717 1.905l-.183.027-.18.034c-.34.058-.679.115-.944.17l-.34.071c-.452.1-.713.173-.723.177-.044-.092-.088-.177-.136-.265-.075-.146-.153-.3-.221-.442s-.156-.312-.228-.465c-.048-.082-.082-.163-.119-.238 0-.034-.034-.061-.048-.1a.83.83 0 0 1-.051-.112c-.207-.421-.4-.842-.581-1.257-.02-.041-.037-.085-.054-.126l.258-.017v.088zm-81.031 210.682a84.248 84.248 0 0 0-1.413-15.664c-.435-2.184-.883-4.368-1.338-6.514-.116-.537-.228-1.066-.34-1.6l-1.046.139h-.1c-2.853-13.453-5.835-25.305-5.835-25.305s-5.923-22.616-5.237-24.419a4.367 4.367 0 0 0-.275-1.793c-1.433-5.142-7.417-19.311-9.51-24.154a.191.191 0 0 0-.024-.061c-.34-.812-.584-1.359-.659-1.518l.492-7.227.027-.435.065-.924-.027-.024.027-.428a49.549 49.549 0 0 0-13.925-7.3c-.34-.122-.7-.241-1.056-.357.438-2.924 1.019-6.225 1.776-9.442.071-.323.149-.635.231-.951.071-.316.153-.622.234-.931.129-.5.268-1 .411-1.488.472-.149.937-.316 1.4-.492l.177-.068a25.064 25.064 0 0 0 15.283-29.208 24.929 24.929 0 0 0-4.374-9.221c-.156-.211-.323-.421-.489-.628s-.367-.438-.554-.649c.982-2.231 2.14-4.354 2.235-6.524a6.685 6.685 0 0 0 0-.825V83.6a6.975 6.975 0 0 0-2.184-4.293 14.6 14.6 0 0 0-8.086-3.811c-2.992-.53-6.042-.543-9.051-.9-4.989-.6-9.849-2.136-14.838-2.608a35.256 35.256 0 0 0-17.942 3.057c-3.712 1.7-7.472 4.666-7.7 8.739-.183 3.366 2.16 6.592 1.569 9.917-.588 3.267-3.916 5.838-3.624 9.143a6.561 6.561 0 0 0 1.6 3.474c.285.34.588.679.9 1.019a14.7 14.7 0 0 1 3.216 4.123l.078.2c.574 1.593.316 3.607-1.1 4.52a.052.052 0 0 1 .017.024c.02.027.041.048.058.075a.024.024 0 0 0 0-.017 3.715 3.715 0 0 0 1.939 1.209l.289.088c-.234.255-.455.52-.679.8l-.146.194a14.153 14.153 0 0 0-1.019 1.579c-.173.306-.34.611-.479.917a11.516 11.516 0 0 0-1 2.945c-.363 2.248.149 4.592-.4 6.792-.679 2.717-2.829 4.8-4.042 7.326-2.3 4.755-1 10.335-.533 15.585.628 7.132-.391 14.295-1.406 21.379l-1.617 11.313-4.076 28.42c-.5 3.471-1.083 7.132-3.4 9.812h.024a.03.03 0 0 1-.024.027 7.091 7.091 0 0 0 2.187.564c3.019.3 6.219-1.158 8.936-2.754a42.248 42.248 0 0 0 6.089-4.276q-.418 1.528-.9 3.325a.191.191 0 0 1 0 .034c-3.834 14.6-10 41.376-10 41.376s-.56 1.165-1.287 2.9H293.6c-1.121-1.358-2.163-2.659-2.978-3.709zM219.379 126.6c.024-.041.041-.078.065-.115v.737a2.513 2.513 0 0 1-.054.418v.031l.34.126.394.163q3.491 1.379 7.071 2.5c.245.078.492.153.74.224l.051.421c.061.431.119.869.173 1.308v.034c.153 1.212.3 2.422.435 3.6 0 0-6.236-2.377-6.157 1.233a1.845 1.845 0 0 0 0 .194 1.642 1.642 0 0 0 0 .258 18 18 0 0 0 1.114 5.335.242.242 0 0 1-.054.1 1.855 1.855 0 0 0-.149 1.049 10.33 10.33 0 0 0 .143 1.814c-.183.112-.363.224-.543.34-.136.085-.265.18-.4.275a50.451 50.451 0 0 0-3.257-8.4c-.934-1.922-1.983-3.926-1.973-6.035a3.412 3.412 0 0 1 .017-.414 7.118 7.118 0 0 1 .346-1.8c.078-.221.163-.438.258-.652a16.076 16.076 0 0 1 .744-1.488c.177-.319.363-.635.543-.954l.166-.289zm152.492-74.264c-.048-.082-.082-.163-.119-.238 0-.034-.034-.061-.048-.1a2.123 2.123 0 0 1-.228.092c-.149.058-.3.112-.459.156s-.221.068-.34.1l-.3.078.027.061c.126-.027.248-.051.374-.085l.034.421c.143 0 .275-.02.4-.02h.863c-.069-.153-.143-.312-.204-.465z" data-name="Path 3570" transform="translate(-127.321)"/>
        <path id="prefix__Path_3571" d="M471.77 297.437l-2.038.9s-13.283 51.6-13.283 55.773 28.165 27.377 28.165 27.377l4.395-29.663S482.7 283.8 471.77 297.437z" class="prefix__cls-7" data-name="Path 3571" transform="translate(-301.429 -195.217)"/>
        <path id="prefix__Path_3572" d="M638.751 174.049l-11.768-6.14a23.575 23.575 0 0 0-3.451-7.862 17.516 17.516 0 0 0-6.864-6.2c-7.21-3.233 30.5-20.2 30.5-20.2a61.319 61.319 0 0 0 2.1 6.011c1.943 4.8 5.166 11 9.319 12.763 7.055 2.999-19.836 21.628-19.836 21.628z" class="prefix__cls-8" data-name="Path 3572" transform="translate(-406.628 -88.243)"/>
        <path id="prefix__Path_3573" d="M649.262 139.651a28.114 28.114 0 0 1-25.73 20.394 17.516 17.516 0 0 0-6.864-6.2c-7.21-3.233 30.5-20.2 30.5-20.2a61.319 61.319 0 0 0 2.094 6.006z" class="prefix__cls-9" data-name="Path 3573" transform="translate(-406.628 -88.243)"/>
        <path id="prefix__Path_3574" d="M608.274 71.49a28.1 28.1 0 1 1-28.1-28.09h.01a27.965 27.965 0 0 1 28.094 27.835c-.003.085-.003.165-.004.255z" class="prefix__cls-8" data-name="Path 3574" transform="translate(-364.581 -28.65)"/>
        <path id="prefix__Path_3575" d="M647.1 232.068l-7.662 17.878-6.759 11.867H611.05l-6.31-16.224 2.557-16.825h16.523l10.668-.6 3.6-1.2 2.323 1.318z" class="prefix__cls-10" data-name="Path 3575" transform="translate(-399.356 -149.869)"/>
        <path id="prefix__Path_3576" d="M685.654 171.805s4.779 1.019.5 4.527S667.11 191 667.11 191s5.186 4.619 4.113 10.029l17.182-9.577 3.057-15.324s.338-4.608-5.808-4.323z" class="prefix__cls-9" data-name="Path 3576" transform="translate(-440.544 -113.438)"/>
        <path id="prefix__Path_3577" d="M649.166 228.34l-10.929 1.8s2.255 8.338 1.128 10.7a1.608 1.608 0 0 0-.085.228l-4.459 12.053 3.342 9.465 11.568-15.776-3.943-5.971s4.167-5.522 6.646-7.438-3.268-5.061-3.268-5.061z" class="prefix__cls-9" data-name="Path 3577" transform="translate(-419.22 -150.78)"/>
        <path id="prefix__Path_3578" d="M649.166 226.97l-10.929 1.8s2.255 8.338 1.128 10.7a1.608 1.608 0 0 0-.085.228l-4.459 12.053 3.342 9.465 11.568-15.786-3.943-5.971s4.167-5.522 6.646-7.438-3.268-5.051-3.268-5.051z" data-name="Path 3578" transform="translate(-419.22 -149.876)" style="fill:#dce6f2"/>
        <path id="prefix__Path_3579" d="M686.112 169.155s4.778 1.019.5 4.527-19.5 15.565-19.5 15.565 5.634 3.719 4.565 9.126l17.182-9.574 3.057-15.324s.336-4.605-5.804-4.32z" class="prefix__cls-10" data-name="Path 3579" transform="translate(-440.544 -111.688)"/>
        <path id="prefix__Path_3580" d="M616.35 214.52s1.043 1.949 5.645 5.465c0 0-7.662 4.076-4.731 9.805l-11.72-3.057-1.8-5.634z" class="prefix__cls-9" data-name="Path 3580" transform="translate(-398.696 -141.654)"/>
        <path id="prefix__Path_3581" d="M615.027 213.2s1.043 1.949 5.645 5.465c0 0-7.662 4.055-4.731 9.8l-11.717-3.057-1.8-5.631z" class="prefix__cls-10" data-name="Path 3581" transform="translate(-397.824 -140.782)"/>
        <path id="prefix__Path_3582" d="M647.1 234.63l-7.662 17.878-6.738 11.867h-21.65l-6.31-16.224 2.554-16.825h4.6c-.075 3.926 1.358 8.538 1.267 10.253-.156 2.819 4.2 18.027 4.2 18.027s9.126-14.76 12.729-16.074c2.265-.825 7.064-7.693 10.321-12.692z" class="prefix__cls-9" data-name="Path 3582" transform="translate(-399.356 -152.431)"/>
        <path id="prefix__Path_3583" d="M605.234 315.66l-.778.978s5.634 28.281 4.075 34.7a18.236 18.236 0 0 0-.452 3.525v.051c-.275 6.534 1.7 15.015 1.7 15.015s1.576 25 .679 35.277H504.963c-.618-15.2-1.284-34.9-.679-37.08 1.019-3.6 3.057-16.676 3.057-16.676l.224-6.195s0-5.988.183-12.658c.078-3 .194-6.147.36-8.939a47.2 47.2 0 0 1 .924-7.923 17.477 17.477 0 0 0 .435-3.355 1.739 1.739 0 0 1 .02-.323c0-.34.034-.706.048-1.083v-.34c.065-2.187.041-4.782-.031-7.472v-.445c-.058-2.017-.143-4.076-.238-6.032-.3-6.113-.679-11.282-.679-11.282l-12.957-42.926 3.491-8.6 9.69-5.937 17.915-10.817c8.739-7.183 14.492-6.32 16.686-5.533a5.767 5.767 0 0 1 .625.255c.068.034.122.061.173.092a1.434 1.434 0 0 1 .2.115 4.136 4.136 0 0 0-1.522 1.253 5.543 5.543 0 0 0-.941 2.038 9.488 9.488 0 0 0-.241 1.389c-.044.492-.061 1-.061 1.515a26.256 26.256 0 0 0 .289 3.359v.075c.112.795.251 1.572.387 2.3a.136.136 0 0 0 0 .037c.156.852.313 1.64.418 2.32l.054.34a7.786 7.786 0 0 1 .105 1.359 16.514 16.514 0 0 0 .442 3.26c.088.448.19.927.3 1.426.153.679.319 1.42.5 2.174.1.414.2.842.313 1.267.041.17.085.34.126.513l.068.268c.723 2.877 1.508 5.74 1.99 7.472.285 1.019.465 1.647.465 1.647a126.8 126.8 0 0 1 9.2-12.977c.061-.068.115-.132.173-.194.4-.465.8-.89 1.182-1.263a6.982 6.982 0 0 1 2.18-1.637 2.365 2.365 0 0 0 .37-.173c1.671-.948 4.368-4.388 6.891-7.991.248-.34.489-.71.734-1.06.56-.808 1.1-1.62 1.617-2.4.394-.594.771-1.172 1.128-1.722 1.7-2.642 2.894-4.612 2.894-4.612l2.357-.105.411-.02h.275l10.7-.5s.462.078 1.223.231a.218.218 0 0 1 .126.027c3.8.754 14.346 3.142 14.991 6.453.788 4.055 17.8 9.465 17.8 9.465.224 2.717 4.391 4.507 4.391 4.507s6.31 16.676 4.622 23.21c-1.668 6.453 4.34 22.415 4.5 22.864l-1.151 1.454z" class="prefix__cls-7" data-name="Path 3583" transform="translate(-327.302 -139.381)"/>
        <path id="prefix__Path_3584" d="M693.892 166.945s10.416-2.955 12.783 3.128 7.662 30.648 7.662 30.648-13.748 2.591-17.352 0a10.383 10.383 0 0 0-7.326-1.915l-7.774 5.295-2.3-.679s12.437-18.489 15.141-24.772 3.622-9.093-.834-11.705z" class="prefix__cls-9" data-name="Path 3584" transform="translate(-448.785 -109.763)"/>
        <path id="prefix__Path_3585" d="M692.588 162.945s10.423-2.955 12.8 3.128 7.662 30.648 7.662 30.648-13.745 2.591-17.351 0a10.372 10.372 0 0 0-7.322-1.915L680.6 200.1l-2.3-.679s12.437-18.489 15.141-24.772 3.603-9.086-.853-11.704z" class="prefix__cls-7" data-name="Path 3585" transform="translate(-447.933 -107.121)"/>
        <path id="prefix__Path_3586" d="M514.264 452.89s7.774 1.915 9.241 6.31-5.746 4.507-5.746 4.507-4.395-7.774-3.495-10.817z" class="prefix__cls-9" data-name="Path 3586" transform="translate(-339.527 -299.068)"/>
        <path id="prefix__Path_3587" d="M570 548.43s-19.039 38.986-14.645 42.7S570 548.43 570 548.43z" class="prefix__cls-9" data-name="Path 3587" transform="translate(-366.311 -362.16)"/>
        <path id="prefix__Path_3588" d="M677.06 463.84s15.212 37.868 12.169 43.716 6.534 0 6.534 0z" class="prefix__cls-9" data-name="Path 3588" transform="translate(-447.114 -306.299)"/>
        <path id="prefix__Path_3589" d="M663.343 573.98s-51.378 2.479-36.391 18.479 45.744.679 45.744.679z" class="prefix__cls-8" data-name="Path 3589" transform="translate(-412.214 -379.032)"/>
        <path id="prefix__Path_3590" d="M610.1 71.487a27.964 27.964 0 0 1-2.129 10.739c-.472.054-.944.088-1.4.109-.679-1.491-.316-3.213-.3-4.853s-.591-3.569-2.17-4.011c-3.148-.886-5.322 5-8.426 3.936-2.377-.808-1.756-4.415-3.125-6.5-1.083-1.647-3.254-2.112-4.942-3.145-3.59-2.2-3.481-5.729-5.149-9.065-1.746-3.495-5.434-2.462-8.637-.4-2.432 1.569-4.531 3.671-7.132 4.921a17.643 17.643 0 0 1-7.278 1.539 16 16 0 0 1-4.564-.482 28.1 28.1 0 0 1 55.25 7.21z" class="prefix__cls-9" data-name="Path 3590" transform="translate(-366.41 -28.648)"/>
        <path id="prefix__Path_3591" d="M562.537 33.658c-2.435 1.569-4.531 3.668-7.132 4.925a17.694 17.694 0 0 1-7.278 1.535c-3.057.068-6.348-.469-8.436-2.676a8.139 8.139 0 0 1-1.566-7.845 12.742 12.742 0 0 1 5.043-6.5c2.286-1.606 4.938-2.717 6.453-5.016a40.563 40.563 0 0 0 1.854-3.943c2.129-4.14 6.918-6.382 11.547-6.66s9.217 1.1 13.626 2.595 8.851 3.138 13.5 3.447c2.072.129 4.225 0 6.147.785 2.585 1.049 4.279 3.559 5.434 6.113a20.439 20.439 0 0 1 1.963 9.17c-.285 6.714-4.721 13.3-2.771 19.736.516 1.715 1.484 3.474.968 5.189-.754 2.5-3.984 3.074-6.6 3.192-.679-1.491-.316-3.216-.3-4.853s-.591-3.569-2.167-4.011c-3.152-.88-5.325 5-8.423 3.936-2.36-.812-1.749-4.415-3.121-6.5-1.083-1.651-3.257-2.112-4.942-3.145-3.59-2.2-3.481-5.729-5.149-9.065-1.752-3.506-5.444-2.474-8.65-.409z" data-name="Path 3591" transform="translate(-355.112 -4.906)" style="fill:#99607e"/>
        <path id="prefix__Path_3592" d="M453.4 455.505l-2.591.9s1.019 15.324-2.377 19.719 11.153 15.32 11.153 15.32 19.943-.112 20.507-1.7-1.019-28.393-1.019-28.393-10.705-4.171-9.8-10.817c0 0-3.267 15.66-8.11 14.984s-10.348-4.718-7.763-10.013z" class="prefix__cls-7" data-name="Path 3592" transform="translate(-295.794 -297.516)"/>
        <ellipse id="prefix__Ellipse_7" cx="6.837" cy="6.252" class="prefix__cls-9" data-name="Ellipse 7" rx="6.837" ry="6.252" transform="translate(159.412 160.245)"/>
        <path id="prefix__Path_3593" d="M464.836 401.223s-1.358-41.461-13.184-32.223-11.941 20.286-9.689 23.55 9.472 19.6 9.472 19.6a8.263 8.263 0 0 0 12.226-5.434z" class="prefix__cls-8" data-name="Path 3593" transform="translate(-291.112 -242.782)"/>
        <path id="prefix__Path_3594" d="M550.018 155.155a1 1 0 0 0-.306-.469c-.584-.533-1.841-.72-3.736-.557l.078.9c2.527-.217 3.026.285 3.091.37v.085l.078.112a3.79 3.79 0 0 1 .679 2.989c-.554 2.768-3.953 4.972-3.987 5l-.081.048-.051.078c-1.467 2.177-9.764 8.321-11.934 9.91l-.19-.217c-.971.842-9.509 8.317-9.971 11.18-.3 1.8-2.323 2.493-3.057 2.686a19.192 19.192 0 0 1-4.6-4.829c-1.226-2.109 3.709-6.225 4.143-7.832l-.679-.7c-.071.258-6.409 6.181-4.646 9.207a20.159 20.159 0 0 0 4.9 5.193c-.289 2.622-2.085 18.017-4.846 21.665-3.43 4.534-6.314 27.384-5.994 35.362.282 7.088-1.569 20.476-7.75 26.226a9.907 9.907 0 0 1-8.175 2.717h-.149a24.121 24.121 0 0 1-16.587-5.434c-6.164-5.186-9.656-13.65-10.382-25.163h-.149l-.061-3.352a6.538 6.538 0 1 0-.975.078h.075l.061 3.332-.3.02c.747 11.887 4.415 20.68 10.868 26.11a25.132 25.132 0 0 0 17.528 5.736 12.6 12.6 0 0 0 1.358.075 11.141 11.141 0 0 0 7.811-3.142c6.511-6.062 8.491-19.943 8.182-27.272-.34-8.453 2.686-30.481 5.723-34.492 2.975-3.936 4.779-19.274 5.094-22.245 1.077-.3 3.512-1.257 3.926-3.736.3-1.793 6-7.319 9.509-10.379l-.105-.122a132.162 132.162 0 0 0 10.671-8.518c.9-.866 1.8-1.732 2.737-2.557a8.764 8.764 0 0 0 2.938-4.459 4.636 4.636 0 0 0-.739-3.604z" class="prefix__cls-9" data-name="Path 3594" transform="translate(-302.524 -101.736)"/>
        <path id="prefix__Path_3595" d="M628.52 225.778a20.785 20.785 0 0 1-5.22-5.434c-1.759-3.026 4.578-8.946 4.646-9.2l.679.7c-.431 1.6-5.366 5.723-4.14 7.828a19.738 19.738 0 0 0 4.833 5.009z" class="prefix__cls-13" data-name="Path 3595" transform="translate(-411.409 -139.422)"/>
        <path id="prefix__Path_3596" d="M678.79 173.394l-.53-.73c.109-.078 10.776-7.794 12.457-10.291l.054-.075.078-.051c.034-.024 3.434-2.225 3.987-5a3.767 3.767 0 0 0-.679-2.985l-.078-.115v-.082c-.068-.088-.567-.588-3.094-.37l-.078-.9c1.9-.163 3.152.024 3.736.557a1.017 1.017 0 0 1 .309.472 4.639 4.639 0 0 1 .768 3.6 8.715 8.715 0 0 1-2.938 4.459c-.934.825-1.834 1.7-2.734 2.557a142.723 142.723 0 0 1-11.258 8.954z" class="prefix__cls-7" data-name="Path 3596" transform="translate(-447.907 -100.857)"/>
        <path id="prefix__Rectangle_2797" d="M0 0H0.9V5.471H0z" class="prefix__cls-7" data-name="Rectangle 2797" transform="rotate(-1.05 7579.558 -8759.666)"/>
        <circle id="prefix__Ellipse_8" cx="6.572" cy="6.572" r="6.572" class="prefix__cls-3" data-name="Ellipse 8" transform="translate(155.147 125.094)"/>
        <circle id="prefix__Ellipse_9" cx="5.458" cy="5.458" r="5.458" class="prefix__cls-7" data-name="Ellipse 9" transform="translate(156.261 126.208)"/>
        <path id="prefix__Path_3597" d="M505.475 311.942a12.62 12.62 0 0 1-1.359-.071 25.169 25.169 0 0 1-17.528-5.736c-6.453-5.434-10.114-14.217-10.868-26.114l1.358-.085c.727 11.513 4.218 19.98 10.386 25.163a24.216 24.216 0 0 0 16.584 5.434h.149a9.927 9.927 0 0 0 8.178-2.717c6.178-5.75 8.029-19.138 7.747-26.226-.34-7.985 2.544-30.835 5.977-35.365 3.006-3.97 4.87-21.865 4.891-22.045l.051-.509.5-.088c.031 0 2.965-.557 3.332-2.751.475-2.86 9-10.335 9.968-11.18l.886 1.019c-3.522 3.057-9.224 8.586-9.51 10.382-.414 2.486-2.849 3.437-3.923 3.736-.34 2.975-2.129 18.309-5.094 22.245-3.036 4.011-6.062 26.039-5.723 34.492.292 7.329-1.668 21.213-8.178 27.272a11.143 11.143 0 0 1-7.824 3.144z" class="prefix__cls-13" data-name="Path 3597" transform="translate(-314.154 -138.438)"/>
        <g id="prefix__Group_323" class="prefix__cls-14" data-name="Group 323" transform="translate(182.92 24.211)">
            <path id="prefix__Path_3598" d="M726.06 90.385c.557-2.058 1.229-4.13 1.7-6.215-.56 2.095-1.238 4.157-1.7 6.215z" data-name="Path 3598" transform="translate(-662.392 -79.785)"/>
            <path id="prefix__Path_3599" d="M596.581 98.033c-.679-1.491-.316-3.216-.3-4.853s-.591-3.552-2.167-4.011c-3.152-.88-5.325 5-8.423 3.936-2.377-.812-1.749-4.415-3.121-6.5-1.083-1.651-3.254-2.112-4.938-3.145-3.593-2.2-3.485-5.729-5.149-9.065-1.749-3.5-5.434-2.466-8.64-.4-2.435 1.569-4.531 3.671-7.132 4.925a17.694 17.694 0 0 1-7.278 1.535c-3.04.071-6.348-.469-8.436-2.676a7.886 7.886 0 0 1-1.858-6.521c-.058.16-.109.319-.16.479a8.16 8.16 0 0 0 1.566 7.845c2.089 2.208 5.4 2.744 8.436 2.676a17.71 17.71 0 0 0 7.281-1.535c2.608-1.257 4.7-3.355 7.132-4.925 3.206-2.065 6.894-3.1 8.64.4 1.664 3.335 1.559 6.86 5.149 9.065 1.7 1.019 3.855 1.494 4.942 3.145 1.359 2.089.757 5.685 3.121 6.5 3.094 1.06 5.268-4.816 8.419-3.936 1.576.442 2.184 2.377 2.167 4.011s-.37 3.362.3 4.853c2.612-.119 5.842-.679 6.6-3.192a3.654 3.654 0 0 0 .143-1.111c-1.104 1.905-3.943 2.394-6.294 2.5z" data-name="Path 3599" transform="translate(-538.596 -71.26)"/>
        </g>
        <path id="prefix__Path_3600" d="M781.184 322.1l3.943 4.171s3.155 22.982 4.731 25.132 5.3 10.7 1.8 17.124c0 0-1.128 3.495-.452 4.959s-5.067 8.789-5.067 8.789-7.55 6.759-9.129 7.774-9.914 9.126-12.729 9.238-3.736 3.607-3.736 3.607l-15.888.564s-8.776-.458-10.685.781c0 0 1.019-13.408-8.786-22.2l12.505-4.507s4.734-2.038 6.2-4.167a7.651 7.651 0 0 1 3.736-2.815s3.491-2.479 3.6-3.831 4.269-3.009 4.269-3.009l-2.354-20.089 1.24-33.351s3.943-27.944 12.281-26.365 14.521 38.195 14.521 38.195z" class="prefix__cls-9" data-name="Path 3600" transform="translate(-478.898 -187.431)"/>
        <path id="prefix__Path_3601" d="M785.184 322.1l3.943 4.171s3.155 22.982 4.731 25.132 5.3 10.7 1.8 17.124c0 0-1.124 3.495-.448 4.959s-5.071 8.789-5.071 8.789-7.55 6.759-9.129 7.774-9.914 9.126-12.729 9.238-3.736 3.607-3.736 3.607l-15.888.564s-8.783-.458-10.685.781c0 0 1.019-13.408-8.786-22.2l12.505-4.507s4.734-2.038 6.2-4.167a7.651 7.651 0 0 1 3.736-2.815s3.491-2.479 3.6-3.831 4.269-3.009 4.269-3.009l-2.354-20.089 1.24-33.351s3.943-27.944 12.281-26.365 14.521 38.195 14.521 38.195z" class="prefix__cls-7" data-name="Path 3601" transform="translate(-481.54 -187.431)"/>
        <path id="prefix__Path_3602" d="M850.9 493.4s11.6-3.057 14.648.679-14.648-.679-14.648-.679z" class="prefix__cls-9" data-name="Path 3602" transform="translate(-561.914 -325.042)"/>
        <path id="prefix__Path_3603" d="M842.94 510.78c3.943 2.761 16.112 2.873 16.112 2.873z" class="prefix__cls-9" data-name="Path 3603" transform="translate(-556.657 -337.297)"/>
        <path id="prefix__Path_3604" d="M860.52 551.42c.34.112 8.365 8.677 11.734 6.086s-11.734-6.086-11.734-6.086z" class="prefix__cls-9" data-name="Path 3604" transform="translate(-568.267 -364.134)"/>
        <path id="prefix__Path_3605" d="M542.28 339.76s2.357 16.227 1.2 22.836 3.077 14.8 3.077 14.8z" class="prefix__cls-9" data-name="Path 3605" transform="translate(-358.109 -224.359)"/>
        <path id="prefix__Path_3606" d="M325.984 353.184c-2.717 2.129-4.7 7.169-6.137 12.709a136.714 136.714 0 0 0-3.325 20.867s-21.634-4.959-20.058-7.21c.992-1.416-.34-12.087-1.45-19.824-.662-4.571-1.253-8.12-1.253-8.12s39.66-4.284 32.223 1.578z" class="prefix__cls-15" data-name="Path 3606" transform="translate(-193.993 -231.185)"/>
        <path id="prefix__Path_3607" d="M325.984 351.857c-2.717 2.133-4.7 7.169-6.137 12.709a24.963 24.963 0 0 1-24.833-6.164c-.662-4.575-1.253-8.124-1.253-8.124s39.66-4.278 32.223 1.579z" class="prefix__cls-9" data-name="Path 3607" transform="translate(-193.993 -230.309)"/>
        <path id="prefix__Path_3608" d="M325.567 273.482a25.024 25.024 0 1 1-5.505-15.65 25.024 25.024 0 0 1 5.505 15.65z" class="prefix__cls-15" data-name="Path 3608" transform="translate(-181.947 -164.072)"/>
        <path id="prefix__Path_3609" d="M464.7 731.4h-7.132l-.6-12.6-.628-13.038s1.62-.241 4.2-.6l1.043-.139h.085c.564 2.646 1.121 5.363 1.657 8.076a82.973 82.973 0 0 1 1.389 14.6v1c.022.906.001 1.813-.014 2.701z" class="prefix__cls-9" data-name="Path 3609" transform="translate(-301.356 -465.568)"/>
        <path id="prefix__Path_3610" d="M303.014 550H213.57c.387-.88.645-1.413.645-1.413s7.156-31.307 10.793-44.552a.191.191 0 0 0 0-.034 52.993 52.993 0 0 1 1.644-5.315 1.809 1.809 0 0 1 .16-.34c1.8-2.928 4.055-6.083.9-10.59s-2.038-24.338-2.038-24.338 3.831-16.9 7.886-25.917a12.125 12.125 0 0 1 2.574-3.736 10.525 10.525 0 0 1 1.128-.958 9.944 9.944 0 0 1 .944-.628l.065-.041a13.626 13.626 0 0 1 5.546-1.722 15.819 15.819 0 0 1 4.16.115A62.093 62.093 0 0 1 264 434.944c11.34 4.982 14.774 11.659 14.842 11.8l.027.058c.455 1.063 7.112 16.6 9.51 23.855.622 1.888.961 3.216.825 3.58-.679 1.8 5.183 24.334 5.183 24.334s2.717 10.868 5.434 23.607c.119.53.231 1.06.34 1.6.486 2.313.968 4.67 1.433 7.023a82.569 82.569 0 0 1 1.389 14.706q.075 2.301.031 4.493z" class="prefix__cls-16" data-name="Path 3610" transform="translate(-141.037 -284.168)"/>
        <path id="prefix__Path_3611" d="M289.2 406.265s-6.171-2.377-6.1 1.229 1.5 5.332 1.053 5.859.224 3.682.224 3.682 8.338 0 12.169 1.725 17.953 5.183 19.756 6.236 8.491 5.774 8.491 5.774l.6-8.939a51 51 0 0 0-18.251-8.637c-11.331-2.928-17.942-6.929-17.942-6.929z" class="prefix__cls-9" data-name="Path 3611" transform="translate(-186.958 -267.77)"/>
        <path id="prefix__Path_3612" d="M289.2 404.935s-6.171-2.377-6.1 1.229 1.5 5.332 1.053 5.859.224 3.682.224 3.682 8.338 0 12.169 1.729 17.953 5.183 19.756 6.232 8.491 5.774 8.491 5.774l.608-8.912a51 51 0 0 0-18.251-8.637c-11.333-2.928-17.95-6.956-17.95-6.956z" class="prefix__cls-16" data-name="Path 3612" transform="translate(-186.958 -266.892)"/>
        <path id="prefix__Path_3613" d="M355.91 469.77s11.792 12.767 11.191 16.3-11.191-16.3-11.191-16.3z" class="prefix__cls-9" data-name="Path 3613" transform="translate(-235.035 -310.215)"/>
        <path id="prefix__Path_3614" d="M378.7 683.19s-4.582 9.316-2.1 8.715 2.1-8.715 2.1-8.715z" data-name="Path 3614" transform="translate(-248.212 -451.152)" style="fill:none"/>
        <path id="prefix__Path_3615" d="M276.288 605.56s-8.643 7.964-11.191 8.416 1.953 1.953 4.88.754 9.17-4.354 9.17-4.354z" class="prefix__cls-9" data-name="Path 3615" transform="translate(-174.567 -399.887)"/>
        <path id="prefix__Path_3616" d="M419.258 729.837H399.1c-2.819-2.445-5.485-4.711-7.183-6.073a23.443 23.443 0 0 1-5.926-7.971c-.282-.588-.526-1.138-.734-1.637a27.279 27.279 0 0 1-.978-2.632l14.927-8.864a23.373 23.373 0 0 1 2.32 2.269l.18.207a6.129 6.129 0 0 1 1.623 3c.075 1.06 3.023 5.159 6.035 9.1 3.057 4 6.188 7.832 6.4 8.09s.516.7 1.358 1.783c.591.775 1.324 1.712 2.136 2.728z" class="prefix__cls-15" data-name="Path 3616" transform="translate(-253.77 -464.009)"/>
        <path id="prefix__Path_3617" d="M320.067 257.844a14.559 14.559 0 0 0-1.454 5.094c-.268 5.2.166 16.815-5.587 19.423-2.849 1.284-5.9-1.535-9.024-1.6a7.336 7.336 0 0 0-5.682 3.162 34.209 34.209 0 0 0-3.22 5.916 40.387 40.387 0 0 1-3.121 5.264 13.286 13.286 0 0 1-1.155 1.457 25.017 25.017 0 1 1 29.242-38.7z" class="prefix__cls-9" data-name="Path 3617" transform="translate(-181.952 -164.084)"/>
        <path id="prefix__Path_3618" d="M266.35 241.865c-.272 5.2.166 16.815-5.59 19.42-2.849 1.284-5.9-1.532-9.024-1.6a7.338 7.338 0 0 0-5.682 3.158 33.992 33.992 0 0 0-3.22 5.92 40.486 40.486 0 0 1-3.121 5.264 7.643 7.643 0 0 1-2.551 2.544c-1.875.978-4.147.428-6.157-.2q-3.912-1.233-7.709-2.778a7.776 7.776 0 0 0 .088-1.155c-.075.143-.156.275-.238.418l-.16.278c-.289.509-.571 1.019-.829 1.542-.1.2-.194.408-.279.615a7.811 7.811 0 0 0-.635 2.432c-.173 2.265.944 4.415 1.936 6.453 3.814 7.883 6.171 17.1 3.3 25.37-1.243 3.6-3.4 6.792-4.969 10.267a33.17 33.17 0 0 0-2.32 19.624c.785 4.116 2.357 8.192 1.97 12.366-.679 7.183-6.874 12.529-13.079 16.2-3.352 1.977-7.455 3.736-11.014 2.174 2.269-2.649 2.853-6.314 3.342-9.771q2.007-14.146 4.025-28.3.8-5.634 1.606-11.269c1-7.057 2.011-14.193 1.386-21.294-.455-5.234-1.739-10.79.53-15.528 1.2-2.51 3.335-4.588 4-7.292.547-2.2.037-4.534.4-6.772a11.523 11.523 0 0 1 .992-2.934 14.417 14.417 0 0 1 2.275-3.471 3.886 3.886 0 0 1-2.275-1.389c1.46-.951 1.681-3.094 1.019-4.7a14.456 14.456 0 0 0-3.179-4.106 7.929 7.929 0 0 1-2.489-4.483c-.289-3.3 3.006-5.852 3.586-9.105.588-3.311-1.735-6.531-1.549-9.883.217-4.052 3.94-7 7.614-8.7a34.642 34.642 0 0 1 17.756-3.057c4.952.469 9.744 2 14.682 2.595 2.979.34 6 .374 8.956.9a14.388 14.388 0 0 1 8 3.8c5.494 5.704-1.081 10.415-1.394 16.447z" data-name="Path 3618" transform="translate(-130.141 -143.928)" style="fill:#ffe0d0"/>
        <path id="prefix__Path_3619" d="M308.354 573.43c-1.732-.751-4.884-.3-10.294-1.949s-6.453-9.092-6.453-9.092v-.024c-.065-.17-.567-1.277-3.97-5.156-3.76-4.283-11.887-25.913-11.887-25.913s-7.207-7.74-6.979-10.593-1.28-10.443-1.131-18.934 16.224-14.122 16.224-14.122c30.95-5.485 23.662 30.2 22.836 32.9s3.457 10.005 3.457 10.005c-.6 3.179 2.479 8.1 2.479 8.1s.747 4.354.9 6.008a1.017 1.017 0 0 0 .051.224c.5 1.559 4.537 2.972 6.181 3.831 1.729.9 7.288 8.789 7.288 8.789 1.2 5.796-16.977 16.686-18.702 15.926z" class="prefix__cls-9" data-name="Path 3619" transform="translate(-176.736 -321.642)"/>
        <path id="prefix__Path_3620" d="M311.01 569.463c-1.729-.754-4.884-.3-10.291-1.953s-6.453-9.088-6.453-9.088v-.022c-.061-.173-.567-1.277-3.97-5.156-3.76-4.283-11.887-25.917-11.887-25.917s-7.207-7.737-6.983-10.589-1.277-10.444-1.128-18.927 16.215-14.111 16.215-14.111c30.95-5.485 23.662 30.2 22.836 32.9s3.457 10.005 3.457 10.005c-.6 3.179 2.479 8.1 2.479 8.1s.747 4.354.9 6.008a.859.859 0 0 0 .048.224c.5 1.559 4.537 2.972 6.185 3.831 1.725.9 7.288 8.789 7.288 8.789 1.21 5.778-16.967 16.673-18.696 15.906z" class="prefix__cls-16" data-name="Path 3620" transform="translate(-178.493 -319.034)"/>
        <path id="prefix__Path_3621" d="M319.86 539.66s13.52 14.264 17.049 14.264-17.049-14.264-17.049-14.264z" class="prefix__cls-9" data-name="Path 3621" transform="translate(-211.228 -356.368)"/>
        <path id="prefix__Path_3622" d="M357.633 681.842c-1.729-.754-4.884-.3-10.291-1.953s-6.453-9.088-6.453-9.088v-.024c3.583-2.377 12.658-9.092 16.234-11.547a25.053 25.053 0 0 0 5.774-5.93c.5 1.559 4.537 2.972 6.185 3.831 1.725.9 7.288 8.79 7.288 8.79 1.169 5.793-17.008 16.689-18.737 15.921z" class="prefix__cls-16" data-name="Path 3622" transform="translate(-225.116 -431.413)"/>
        <g id="prefix__Group_324" class="prefix__cls-14" data-name="Group 324" transform="translate(66.929 80.562)">
            <path id="prefix__Path_3623" d="M245.06 347.6c.017.027.041.051.061.078.1-.129.207-.258.316-.38a2.564 2.564 0 0 1-.377.302z" data-name="Path 3623" transform="translate(-228.761 -309.901)"/>
            <path id="prefix__Path_3624" d="M221.248 380.255a12.812 12.812 0 0 1 2.1-5.2c-.618-.238-1.236-.479-1.848-.73a7.73 7.73 0 0 0 .088-1.151c-.954 1.7-1.994 3.369-2.14 5.281-.173 2.269.944 4.415 1.936 6.453 3.817 7.879 6.171 17.1 3.3 25.37-1.246 3.593-3.4 6.793-4.969 10.267a33.156 33.156 0 0 0-2.316 19.62c.778 4.12 2.354 8.192 1.966 12.366-.679 7.183-6.871 12.529-13.079 16.2-2.537 1.5-5.5 2.877-8.338 2.778a10.273 10.273 0 0 1-.876 1.206c3.563 1.572 7.662-.2 11.014-2.18 6.212-3.668 12.417-9 13.1-16.2.387-4.174-1.189-8.246-1.97-12.366a33.184 33.184 0 0 1 2.309-19.62c1.562-3.471 3.736-6.674 4.969-10.267 2.87-8.273.513-17.491-3.3-25.37-.994-2.052-2.119-4.189-1.946-6.457z" data-name="Path 3624" transform="translate(-197.07 -326.984)"/>
            <path id="prefix__Path_3625" d="M318.737 238.131a9.833 9.833 0 0 0-1.073-.951c4.116 5.339-1.827 9.876-2.123 15.623-.265 5.2.17 16.818-5.587 19.42-2.846 1.287-5.9-1.532-9.02-1.6a7.352 7.352 0 0 0-5.685 3.162 33.841 33.841 0 0 0-3.216 5.916 40.666 40.666 0 0 1-3.125 5.264 7.451 7.451 0 0 1-2.554 2.547c-1.868.975-4.14.428-6.154-.2q-2.938-.924-5.821-2.038a7.387 7.387 0 0 1-.088 1.056q3.8 1.549 7.713 2.778c2.011.632 4.283 1.178 6.154.2a7.643 7.643 0 0 0 2.554-2.551 40.031 40.031 0 0 0 3.121-5.261 33.89 33.89 0 0 1 3.22-5.92 7.353 7.353 0 0 1 5.682-3.159c3.125.068 6.178 2.887 9.024 1.6 5.757-2.6 5.319-14.223 5.587-19.42.311-6.04 6.886-10.747 1.391-16.466z" data-name="Path 3625" transform="translate(-248.064 -237.18)"/>
        </g>
        <path id="prefix__Path_3626" d="M254.649 363.521c-.289.509-.571 1.019-.829 1.542-.1.2-.194.408-.278.615-1.78-1.793-6.113-6.055-8.531-7.377a14.482 14.482 0 0 1 2.275-3.471s5.763 3.046 7.363 8.691z" class="prefix__cls-9" data-name="Path 3626" transform="translate(-161.799 -234.311)"/>
        <path id="prefix__Path_3627" d="M254.808 361.492c-1.335-6.042-7.523-9.312-7.523-9.312a14.417 14.417 0 0 0-2.275 3.471c2.551 1.4 7.251 6.076 8.81 7.662z" class="prefix__cls-16" data-name="Path 3627" transform="translate(-161.799 -232.561)"/>
    </g>
</svg>
